<svg data-v-fde0c5aa="" xmlns="http://www.w3.org/2000/svg" viewBox="0 0 300 300" class="iconLeftSlogan"><!----><defs data-v-fde0c5aa=""><!----></defs><rect data-v-fde0c5aa="" fill="#FFFFFF" x="0" y="0" width="300px" height="300px" class="logo-background-square"></rect><defs data-v-fde0c5aa=""><!----></defs><g data-v-fde0c5aa="" id="76da850a-5def-4bfc-9969-d87d2f0d34a5" fill="#474444" transform="matrix(3.145315423388303,0,0,3.145315423388303,122.140816421515,97.28661529055209)"><path d="M4.55 19.18L4.55 19.18Q2.74 19.18 1.73 18.13L1.73 18.13L1.73 18.13Q0.71 17.08 0.71 15.19L0.71 15.19L0.71 15.19Q0.71 13.36 1.52 11.87L1.52 11.87L1.52 11.87Q2.32 10.37 3.70 9.52L3.70 9.52L3.70 9.52Q5.07 8.67 6.72 8.67L6.72 8.67L6.72 8.67Q7.73 8.67 8.30 8.99L8.30 8.99L8.30 8.99Q8.88 9.31 8.88 9.88L8.88 9.88L8.88 9.88Q8.88 10.36 8.50 10.69L8.50 10.69L8.50 10.69Q8.12 11.02 7.56 11.02L7.56 11.02L7.56 11.02Q6.24 11.02 5.66 9.86L5.66 9.86L5.66 9.86Q4.75 10.25 4.03 11.05L4.03 11.05L4.03 11.05Q3.32 11.84 2.91 12.94L2.91 12.94L2.91 12.94Q2.51 14.04 2.51 15.30L2.51 15.30L2.51 15.30Q2.51 16.66 3.04 17.43L3.04 17.43L3.04 17.43Q3.57 18.20 4.51 18.20L4.51 18.20L4.51 18.20Q5.59 18.20 6.28 17.43L6.28 17.43L6.28 17.43Q6.97 16.66 7.06 15.47L7.06 15.47L7.06 15.47Q8.20 15.47 8.20 16.44L8.20 16.44L8.20 16.44Q8.20 17.18 7.71 17.81L7.71 17.81L7.71 17.81Q7.21 18.44 6.37 18.81L6.37 18.81L6.37 18.81Q5.53 19.18 4.55 19.18L4.55 19.18ZM11.34 19.18L11.34 19.18Q10.47 19.18 10.47 18.07L10.47 18.07L10.47 18.07Q10.47 17.39 10.93 14.48L10.93 14.48L10.93 14.48Q11.38 11.56 11.80 9.28L11.80 9.28L11.19 8.58L11.19 8.58Q11.51 8.30 11.96 8.14L11.96 8.14L11.96 8.14Q12.42 7.98 12.80 7.98L12.80 7.98L12.80 7.98Q13.19 7.98 13.36 8.16L13.36 8.16L13.36 8.16Q13.52 8.33 13.52 8.75L13.52 8.75L13.52 8.75Q13.52 8.99 13.36 9.79L13.36 9.79L13.36 9.79Q13.19 10.60 13.15 10.84L13.15 10.84L13.15 10.84Q12.68 13.09 12.40 14.83L12.40 14.83L12.40 14.83Q12.11 16.58 12.11 17.93L12.11 17.93L12.11 17.93Q12.11 18.20 12.19 18.43L12.19 18.43L12.19 18.43Q12.26 18.66 12.39 18.79L12.39 18.79L12.39 18.79Q11.96 19.18 11.34 19.18L11.34 19.18ZM18.82 19.18L18.82 19.18Q17.81 19.18 17.05 18.73L17.05 18.73L17.05 18.73Q16.28 18.27 15.87 17.44L15.87 17.44L15.87 17.44Q15.46 16.60 15.46 15.50L15.46 15.50L15.46 15.50Q15.46 14.01 16.08 12.87L16.08 12.87L16.08 12.87Q16.70 11.72 17.82 11.07L17.82 11.07L17.82 11.07Q18.94 10.43 20.36 10.43L20.36 10.43L20.36 10.43Q20.94 10.43 21.43 10.54L21.43 10.54L21.43 10.54Q21.59 10.77 21.62 11.20L21.62 11.20L21.62 11.20Q20.22 11.20 19.22 11.76L19.22 11.76L19.22 11.76Q18.23 12.32 17.71 13.32L17.71 13.32L17.71 13.32Q17.19 14.32 17.19 15.60L17.19 15.60L17.19 15.60Q17.19 16.84 17.65 17.54L17.65 17.54L17.65 17.54Q18.12 18.24 18.97 18.24L18.97 18.24L18.97 18.24Q19.80 18.24 20.46 17.78L20.46 17.78L20.46 17.78Q21.13 17.32 21.55 16.46L21.55 16.46L21.55 16.46Q21.98 15.61 22.09 14.48L22.09 14.48L22.09 14.48Q21.52 14.11 21.26 13.68L21.26 13.68L21.26 13.68Q21 13.24 21 12.66L21 12.66L21 12.66Q21 12.12 21.32 11.77L21.32 11.77L21.32 11.77Q21.64 11.41 22.12 11.41L22.12 11.41L22.12 11.41Q22.76 11.41 23.13 11.98L23.13 11.98L23.13 11.98Q23.49 12.56 23.49 13.58L23.49 13.58L23.49 13.58Q23.49 15.12 22.87 16.40L22.87 16.40L22.87 16.40Q22.25 17.68 21.18 18.43L21.18 18.43L21.18 18.43Q20.10 19.18 18.82 19.18L18.82 19.18ZM32.72 18.06L32.72 18.06Q32.72 18.55 32.97 18.79L32.97 18.79L32.97 18.79Q32.54 19.18 32.03 19.18L32.03 19.18L32.03 19.18Q31.56 19.18 31.30 18.89L31.30 18.89L31.30 18.89Q31.05 18.59 31.05 18.03L31.05 18.03L31.05 18.03Q31.05 17.72 31.15 17.19L31.15 17.19L31.01 17.12L31.01 17.12Q30.51 18.10 29.74 18.64L29.74 18.64L29.74 18.64Q28.98 19.18 28.08 19.18L28.08 19.18L28.08 19.18Q27.33 19.18 26.75 18.77L26.75 18.77L26.75 18.77Q26.17 18.37 25.85 17.62L25.85 17.62L25.85 17.62Q25.54 16.87 25.54 15.89L25.54 15.89L25.54 15.89Q25.54 14.38 26.25 13.13L26.25 13.13L26.25 13.13Q26.96 11.87 28.20 11.15L28.20 11.15L28.20 11.15Q29.43 10.43 30.91 10.43L30.91 10.43L30.91 10.43Q31.56 10.43 32.23 10.54L32.23 10.54L32.23 10.54Q32.33 10.71 32.38 10.99L32.38 10.99L32.38 10.99Q32.68 10.78 33.05 10.78L33.05 10.78L33.05 10.78Q33.40 10.78 33.61 10.95L33.61 10.95L33.61 10.95Q33.81 11.12 33.81 11.41L33.81 11.41L33.81 11.41Q33.81 11.73 33.72 12.18L33.72 12.18L33.72 12.18Q33.63 12.63 33.42 13.50L33.42 13.50L33.42 13.50Q33.08 14.91 32.90 15.95L32.90 15.95L32.90 15.95Q32.72 16.98 32.72 18.06L32.72 18.06ZM28.76 17.86L28.76 17.86Q30.06 17.86 30.90 16.21L30.90 16.21L30.90 16.21Q31.74 14.55 32.16 11.20L32.16 11.20L32.16 11.20Q30.65 11.24 29.53 11.87L29.53 11.87L29.53 11.87Q28.42 12.49 27.84 13.52L27.84 13.52L27.84 13.52Q27.26 14.56 27.26 15.85L27.26 15.85L27.26 15.85Q27.26 16.80 27.65 17.33L27.65 17.33L27.65 17.33Q28.04 17.86 28.76 17.86L28.76 17.86ZM42 16.60L42 16.60Q42.39 17.30 42.78 17.71L42.78 17.71L42.78 17.71Q43.16 18.12 43.83 18.37L43.83 18.37L43.83 18.37Q43.60 18.76 43.25 18.97L43.25 18.97L43.25 18.97Q42.91 19.18 42.53 19.18L42.53 19.18L42.53 19.18Q41.99 19.18 41.60 18.85L41.60 18.85L41.60 18.85Q41.22 18.52 40.74 17.65L40.74 17.65L39.49 15.39L38.05 16.30L38.05 16.30Q37.98 17.21 37.98 17.93L37.98 17.93L37.98 17.93Q37.98 18.20 38.06 18.43L38.06 18.43L38.06 18.43Q38.14 18.66 38.26 18.79L38.26 18.79L38.26 18.79Q37.83 19.18 37.21 19.18L37.21 19.18L37.21 19.18Q36.34 19.18 36.34 18.07L36.34 18.07L36.34 18.07Q36.34 17.39 36.80 14.48L36.80 14.48L36.80 14.48Q37.25 11.56 37.67 9.28L37.67 9.28L37.06 8.58L37.06 8.58Q37.38 8.30 37.84 8.14L37.84 8.14L37.84 8.14Q38.29 7.98 38.67 7.98L38.67 7.98L38.67 7.98Q39.06 7.98 39.23 8.16L39.23 8.16L39.23 8.16Q39.40 8.33 39.40 8.75L39.40 8.75L39.40 8.75Q39.40 9.03 39.30 9.51L39.30 9.51L39.30 9.51Q39.21 10.00 39.00 10.89L39.00 10.89L39.00 10.89Q38.36 13.58 38.15 15.41L38.15 15.41L39.61 14.27L39.61 14.27Q40.61 13.43 41.20 12.68L41.20 12.68L41.20 12.68Q41.78 11.93 41.78 11.20L41.78 11.20L41.78 11.20Q41.78 10.99 41.71 10.74L41.71 10.74L41.71 10.74Q41.90 10.58 42.15 10.51L42.15 10.51L42.15 10.51Q42.39 10.43 42.63 10.43L42.63 10.43L42.63 10.43Q43.04 10.43 43.27 10.68L43.27 10.68L43.27 10.68Q43.51 10.93 43.51 11.37L43.51 11.37L43.51 11.37Q43.51 12.81 40.85 14.52L40.85 14.52L42 16.60Z"></path></g><defs data-v-fde0c5aa=""><!----></defs><g data-v-fde0c5aa="" id="2ccbc016-df63-4061-bc97-82fca53555ad" stroke="none" fill="#C36A2B" transform="matrix(2.2304371970196732,0,0,2.2304371970196732,40,114.31300484768522)"><path d="M4.029 14.362L14.362 4.028l.707.707L4.736 15.07zM17.135 27.47L27.47 17.135l.707.707-10.333 10.333zM4.029 17.841l.707-.707 10.333 10.334-.707.707zM17.135 4.735l.708-.707L28.176 14.36l-.707.707z"></path><g><path d="M16 1.414l1.683 1.683L16 4.779l-1.683-1.683L16 1.414M16 0l-3.097 3.097L16 6.194l3.097-3.097L16 0zM16 27.221l1.683 1.683L16 30.586l-1.683-1.683L16 27.221m0-1.415l-3.097 3.097L16 32l3.097-3.097L16 25.806zM3.097 14.317L4.779 16l-1.683 1.683L1.414 16l1.683-1.683m0-1.414L0 16l3.097 3.097L6.194 16l-3.097-3.097zM28.903 14.317L30.586 16l-1.683 1.683L27.221 16l1.682-1.683m0-1.414L25.806 16l3.097 3.097L32 16l-3.097-3.097z"></path></g></g><defs data-v-fde0c5aa=""><!----></defs><g data-v-fde0c5aa="" id="74eba806-6274-485e-a3e6-75b95c26d734" fill="#B58989" transform="matrix(0.4945522700006654,0,0,0.4945522700006654,123.815146241887,166.5752078509799)"><path d="M2.18 8.18L5.31 8.18C7.28 8.18 8.50 7.03 8.50 5.19C8.50 3.37 7.28 2.21 5.31 2.21L1.13 2.21L1.13 11.48L2.18 11.48ZM5.24 3.21C6.69 3.21 7.45 3.96 7.45 5.19C7.45 6.44 6.69 7.20 5.24 7.20L2.18 7.20L2.18 3.21ZM17.98 7.92L21.20 7.92L23.44 11.48L24.68 11.48L22.25 7.74C23.28 7.50 24.49 6.90 24.49 5.11C24.49 3.35 23.27 2.21 21.36 2.21L16.93 2.21L16.93 11.48L17.98 11.48ZM17.98 3.21L21.24 3.21C22.55 3.21 23.44 3.93 23.44 5.11C23.44 6.55 22.18 6.93 21.18 6.93L17.98 6.93ZM34.34 2.21L33.29 2.21L33.29 11.48L34.34 11.48ZM50.08 2.21L46.87 10.29L43.67 2.21L42.52 2.21L46.27 11.48L47.47 11.48L51.23 2.21ZM62.96 2.21L61.64 2.21L57.71 11.48L58.87 11.48L60.00 8.79L64.60 8.79L65.73 11.48L66.89 11.48ZM60.41 7.83L62.30 3.30L64.19 7.83ZM78.86 10.57C76.61 10.57 75.35 8.93 75.35 6.85C75.35 4.76 76.61 3.12 78.86 3.12C80.39 3.12 81.40 3.85 81.87 4.98L82.98 4.98C82.39 3.29 80.88 2.10 78.78 2.10C75.99 2.10 74.30 4.21 74.30 6.85C74.30 9.48 75.99 11.59 78.78 11.59C80.88 11.59 82.39 10.40 82.98 8.71L81.87 8.71C81.40 9.84 80.39 10.57 78.86 10.57ZM95.19 7.81L99.06 2.21L97.79 2.21L94.65 6.72L91.52 2.21L90.24 2.21L94.14 7.81L94.14 11.48L95.19 11.48ZM124.98 2.21L121.72 6.61L118.40 2.21L117.18 2.21L117.18 11.48L118.23 11.48L118.23 3.81L121.72 8.22L125.15 3.81L125.15 11.48L126.20 11.48L126.20 2.21ZM139.62 2.21L138.31 2.21L134.37 11.48L135.53 11.48L136.67 8.79L141.26 8.79L142.39 11.48L143.56 11.48ZM137.07 7.83L138.96 3.30L140.85 7.83ZM155.64 2.21L151.73 2.21L151.73 11.48L155.64 11.48C157.85 11.48 159.89 9.74 159.89 6.85C159.89 3.95 157.85 2.21 155.64 2.21ZM155.60 10.49L152.78 10.49L152.78 3.21L155.60 3.21C157.57 3.21 158.84 4.86 158.84 6.85C158.84 8.83 157.57 10.49 155.60 10.49ZM175.41 3.22L175.41 2.21L168.59 2.21L168.59 11.48L175.41 11.48L175.41 10.47L169.64 10.47L169.64 7.35L174.79 7.35L174.79 6.33L169.64 6.33L169.64 3.22ZM194.70 4.65C194.70 4.03 195.06 3.08 197.16 3.08C198.86 3.08 199.64 3.82 199.75 4.75L200.83 4.75C200.75 3.36 199.63 2.10 197.16 2.10C194.84 2.10 193.68 3.15 193.68 4.66C193.68 7.84 200.02 6.69 200.02 8.96C200.02 10.05 199.04 10.60 197.47 10.60C195.86 10.60 194.56 10.05 194.49 8.71L193.40 8.71C193.54 10.37 194.66 11.59 197.40 11.59C199.68 11.59 201.07 10.64 201.07 8.92C201.07 5.68 194.70 6.80 194.70 4.65ZM210.74 2.21L209.69 2.21L209.69 11.48L210.74 11.48ZM227.81 2.21L224.55 6.61L221.23 2.21L220.01 2.21L220.01 11.48L221.06 11.48L221.06 3.81L224.55 8.22L227.98 3.81L227.98 11.48L229.03 11.48L229.03 2.21ZM239.34 8.18L242.47 8.18C244.44 8.18 245.66 7.03 245.66 5.19C245.66 3.37 244.44 2.21 242.47 2.21L238.29 2.21L238.29 11.48L239.34 11.48ZM242.40 3.21C243.85 3.21 244.61 3.96 244.61 5.19C244.61 6.44 243.85 7.20 242.40 7.20L239.34 7.20L239.34 3.21ZM254.09 2.21L254.09 11.48L260.19 11.48L260.19 10.47L255.14 10.47L255.14 2.21ZM275.37 3.22L275.37 2.21L268.55 2.21L268.55 11.48L275.37 11.48L275.37 10.47L269.60 10.47L269.60 7.35L274.75 7.35L274.75 6.33L269.60 6.33L269.60 3.22Z"></path></g></svg>